<svg width="46" height="46" viewBox="0 0 46 46" fill="none" xmlns="http://www.w3.org/2000/svg">
  <path d="M40.25 30.6646V15.3313C40.2493 14.6591 40.0719 13.9988 39.7354 13.4168C39.399 12.8348 38.9155 12.3516 38.3333 12.0154L24.9167 4.34877C24.3339 4.01233 23.6729 3.83521 23 3.83521C22.3271 3.83521 21.6661 4.01233 21.0833 4.34877L7.66667 12.0154C7.0845 12.3516 6.60096 12.8348 6.26455 13.4168C5.92814 13.9988 5.75069 14.6591 5.75 15.3313V30.6646C5.75069 31.3368 5.92814 31.9971 6.26455 32.579C6.60096 33.161 7.0845 33.6443 7.66667 33.9804L21.0833 41.6471C21.6661 41.9836 22.3271 42.1607 23 42.1607C23.6729 42.1607 24.3339 41.9836 24.9167 41.6471L38.3333 33.9804C38.9155 33.6443 39.399 33.161 39.7354 32.579C40.0719 31.9971 40.2493 31.3368 40.25 30.6646Z" stroke="#797979" stroke-width="2" stroke-linecap="round" stroke-linejoin="round" />
</svg>