<svg width="14" height="15" viewBox="0 0 14 15" fill="none" xmlns="http://www.w3.org/2000/svg">
<path d="M12.4999 6.08329C12.4999 5.96702 12.4784 5.85188 12.4365 5.74446C12.3946 5.63704 12.3333 5.53943 12.2559 5.45721C12.1785 5.37499 12.0866 5.30977 11.9855 5.26528C11.8844 5.22078 11.776 5.19788 11.6666 5.19788C11.5572 5.19788 11.4488 5.22078 11.3477 5.26528C11.2466 5.30977 11.1547 5.37499 11.0774 5.45721C11 5.53943 10.9386 5.63704 10.8967 5.74446C10.8548 5.85188 10.8333 5.96702 10.8333 6.08329H12.4999ZM3.16661 6.08329C3.16661 5.84847 3.07882 5.62326 2.92254 5.45721C2.76626 5.29116 2.55429 5.19788 2.33328 5.19788C2.11227 5.19788 1.90031 5.29116 1.74402 5.45721C1.58774 5.62326 1.49995 5.84847 1.49995 6.08329H3.16661ZM12.4106 8.12613C12.5669 8.2922 12.7789 8.38549 12.9999 8.38549C13.221 8.38549 13.433 8.2922 13.5893 8.12613C13.7456 7.96006 13.8334 7.73482 13.8334 7.49996C13.8334 7.2651 13.7456 7.03986 13.5893 6.87379L12.4106 8.12613ZM6.99995 1.12496L7.58928 0.498795C7.5119 0.416552 7.42002 0.351311 7.3189 0.306801C7.21778 0.26229 7.1094 0.23938 6.99995 0.23938C6.89049 0.23938 6.78211 0.26229 6.68099 0.306801C6.57987 0.351311 6.488 0.416552 6.41061 0.498795L6.99995 1.12496ZM0.410614 6.87379C0.254313 7.03986 0.166504 7.2651 0.166504 7.49996C0.166504 7.73482 0.254313 7.96006 0.410614 8.12613C0.566915 8.2922 0.778904 8.38549 0.999947 8.38549C1.22099 8.38549 1.43298 8.2922 1.58928 8.12613L0.410614 6.87379ZM3.66661 14.7604H10.3333V12.9895H3.66661V14.7604ZM12.4999 12.4583V6.08329H10.8333V12.4583H12.4999ZM3.16661 12.4583V6.08329H1.49995V12.4583H3.16661ZM13.5893 6.87379L7.58928 0.498795L6.41061 1.75113L12.4106 8.12613L13.5893 6.87379ZM6.41061 0.498795L0.410614 6.87379L1.58928 8.12613L7.58928 1.75113L6.41061 0.498795ZM10.3333 14.7604C10.9079 14.7604 11.459 14.5178 11.8653 14.0861C12.2717 13.6544 12.4999 13.0688 12.4999 12.4583H10.8333C10.8333 12.5992 10.7806 12.7343 10.6868 12.8339C10.5931 12.9336 10.4659 12.9895 10.3333 12.9895V14.7604ZM3.66661 12.9895C3.53401 12.9895 3.40683 12.9336 3.31306 12.8339C3.21929 12.7343 3.16661 12.5992 3.16661 12.4583H1.49995C1.49995 13.0688 1.72822 13.6544 2.13455 14.0861C2.54088 14.5178 3.09198 14.7604 3.66661 14.7604V12.9895Z" fill="white"/>
</svg>
