<svg width="16" height="19" viewBox="0 0 16 19" fill="none" xmlns="http://www.w3.org/2000/svg">
<g id="material-symbols:mail-outline">
<path id="Vector" d="M2.5777 15.8333C2.23548 15.8333 1.94241 15.6781 1.6985 15.3678C1.45459 15.0575 1.33284 14.6848 1.33325 14.25V4.74996C1.33325 4.31454 1.45521 3.94167 1.69912 3.63134C1.94303 3.321 2.23589 3.1661 2.5777 3.16663H12.5333C12.8755 3.16663 13.1685 3.32179 13.4125 3.63213C13.6564 3.94246 13.7781 4.31507 13.7777 4.74996V14.25C13.7777 14.6854 13.6557 15.0583 13.4118 15.3686C13.1679 15.6789 12.8751 15.8338 12.5333 15.8333H2.5777ZM7.55547 10.2916L2.5777 6.33329V14.25H12.5333V6.33329L7.55547 10.2916ZM7.55547 8.70829L12.5333 4.74996H2.5777L7.55547 8.70829ZM2.5777 6.33329V4.74996V14.25V6.33329Z" fill="#AEB5BC"/>
</g>
</svg>
