<svg width="219" height="219" viewBox="0 0 219 219" fill="none" xmlns="http://www.w3.org/2000/svg">
<path d="M27.375 187.884L60.1338 155.125H164.25C169.09 155.125 173.732 153.202 177.155 149.78C180.577 146.357 182.5 141.715 182.5 136.875V54.75C182.5 49.9098 180.577 45.2678 177.155 41.8453C173.732 38.4228 169.09 36.5 164.25 36.5H45.625C40.7848 36.5 36.1428 38.4228 32.7203 41.8453C29.2978 45.2678 27.375 49.9098 27.375 54.75V187.884ZM27.375 200.75H18.25V54.75C18.25 47.4897 21.1341 40.5268 26.268 35.393C31.4018 30.2591 38.3647 27.375 45.625 27.375H164.25C171.51 27.375 178.473 30.2591 183.607 35.393C188.741 40.5268 191.625 47.4897 191.625 54.75V136.875C191.625 144.135 188.741 151.098 183.607 156.232C178.473 161.366 171.51 164.25 164.25 164.25H63.875L27.375 200.75Z" fill="black"/>
</svg>
