<svg width="18" height="15" viewBox="0 0 18 15" fill="none" xmlns="http://www.w3.org/2000/svg">
<path id="Vector" d="M7.39347 8.79167L17 1M7.39347 8.79167L10.4501 13.75C10.4884 13.8178 10.5499 13.8753 10.6273 13.9156C10.7047 13.9559 10.7948 13.9773 10.8868 13.9773C10.9787 13.9773 11.0688 13.9559 11.1462 13.9156C11.2236 13.8753 11.2851 13.8178 11.3234 13.75L17 1M7.39347 8.79167L1.28022 6.3125C1.19661 6.28142 1.12576 6.23153 1.07608 6.16875C1.02641 6.10596 1 6.03293 1 5.95833C1 5.88373 1.02641 5.8107 1.07608 5.74792C1.12576 5.68514 1.19661 5.63524 1.28022 5.60417L17 1" stroke="#AEB5BC" stroke-width="2" stroke-linecap="round" stroke-linejoin="round"/>
</svg>
