<svg width="16" height="19" viewBox="0 0 16 19" fill="none" xmlns="http://www.w3.org/2000/svg">
<path d="M15.6023 13.446L10.571 18.4773C10.5042 18.544 10.4249 18.5969 10.3377 18.633C10.2504 18.669 10.1569 18.6876 10.0625 18.6875H1.4375C1.05625 18.6875 0.690617 18.536 0.421034 18.2665C0.15145 17.9969 0 17.6312 0 17.25V1.4375C0 1.05625 0.15145 0.690619 0.421034 0.421034C0.690617 0.151451 1.05625 0 1.4375 0H14.375C14.7562 0 15.1219 0.151451 15.3915 0.421034C15.661 0.690619 15.8125 1.05625 15.8125 1.4375V12.9375C15.8126 13.0319 15.794 13.1254 15.758 13.2127C15.7219 13.2999 15.669 13.3792 15.6023 13.446ZM10.7812 16.2339L13.3589 13.6562H10.7812V16.2339ZM14.375 1.4375H1.4375V17.25H9.34375V12.9375C9.34375 12.7469 9.41947 12.5641 9.55427 12.4293C9.68906 12.2945 9.87188 12.2188 10.0625 12.2188H14.375V1.4375Z" fill="white"/>
</svg>
