<svg width="16" height="18" viewBox="0 0 16 18" fill="none" xmlns="http://www.w3.org/2000/svg">
<path id="Vector" d="M4.00116 6.6C4.00116 6.30826 4.10654 6.02847 4.29413 5.82218C4.48173 5.61589 4.73615 5.5 5.00145 5.5H8.00231C8.26761 5.5 8.52203 5.61589 8.70962 5.82218C8.89721 6.02847 9.0026 6.30826 9.0026 6.6V11C9.0026 11.2917 8.89721 11.5715 8.70962 11.7778C8.52203 11.9841 8.26761 12.1 8.00231 12.1H5.00145C4.73615 12.1 4.48173 11.9841 4.29413 11.7778C4.10654 11.5715 4.00116 11.2917 4.00116 11V6.6ZM10.0029 7.7L11.1492 6.4394C11.2191 6.36235 11.3082 6.30983 11.4053 6.28849C11.5023 6.26715 11.6029 6.27796 11.6944 6.31953C11.7858 6.3611 11.864 6.43158 11.919 6.52204C11.9741 6.61249 12.0034 6.71887 12.0035 6.8277V10.7723C12.0034 10.8811 11.9741 10.9875 11.919 11.078C11.864 11.1684 11.7858 11.2389 11.6944 11.2805C11.6029 11.322 11.5023 11.3328 11.4053 11.3115C11.3082 11.2902 11.2191 11.2377 11.1492 11.1606L10.0029 9.9V7.7ZM8.00231 0C9.21077 0.000768035 10.4034 0.302506 11.4906 0.882571C12.5779 1.46264 13.5316 2.30596 14.2801 3.34927C15.0286 4.39257 15.5525 5.60875 15.8126 6.90654C16.0726 8.20434 16.0619 9.55004 15.7814 10.8427C15.5009 12.1353 14.9578 13.3413 14.1929 14.3701C13.428 15.3989 12.4611 16.2239 11.3649 16.783C10.2686 17.3422 9.07139 17.6211 7.8631 17.5988C6.65481 17.5764 5.46682 17.2534 4.38827 16.654L4.26723 16.5825L0.62118 17.5835C0.55101 17.6029 0.477848 17.6053 0.406742 17.5906C0.335636 17.5759 0.268279 17.5444 0.209319 17.4983C0.150359 17.4522 0.1012 17.3925 0.0652347 17.3235C0.0292693 17.2545 0.00735357 17.1777 0.00100022 17.0984V17.0082L0.0150044 16.9169L0.925267 12.9085L0.862249 12.7765C0.404501 11.7856 0.122725 10.7078 0.0320093 9.6008L0.00700199 9.1806L0 8.8C0 6.46609 0.843099 4.22778 2.34382 2.57746C3.84455 0.92714 5.87997 0 8.00231 0ZM8.00231 1.1C6.78042 1.09978 5.57975 1.45119 4.51961 2.1193C3.45947 2.78742 2.57677 3.74898 1.95923 4.90843C1.34169 6.06788 1.0108 7.38486 0.999456 8.72849C0.988108 10.0721 1.29669 11.3956 1.89455 12.5675C1.94096 12.6586 1.96282 12.7624 1.95757 12.8667L1.94356 12.9701L1.18734 16.2932L4.21222 15.4638C4.27371 15.4471 4.33752 15.4434 4.40027 15.4528L4.4913 15.4759L4.57832 15.5188C5.51194 16.0936 6.55291 16.4254 7.62131 16.4888C8.68972 16.5522 9.75712 16.3455 10.7416 15.8846C11.726 15.4237 12.6013 14.7209 13.3003 13.83C13.9992 12.9391 14.5032 11.884 14.7735 10.7455C15.0439 9.60709 15.0734 8.41566 14.8598 7.26274C14.6462 6.10981 14.1951 5.02605 13.5413 4.09468C12.8875 3.16331 12.0482 2.40911 11.0881 1.88998C10.1279 1.37085 9.07227 1.1006 8.00231 1.1Z" fill="#AEB5BC"/>
</svg>
